# xmcd
#
# Track frame offsets:
#	150
#	14372
#	28320
#	45611
#	59720
#	76379
#	91831
#	107908
#	124701
#	140056
#	157388
#	168922
#	184336
#
# Disc length: 2678 seconds
#
# Revision: 1
# Processed by: cddbd v1.5.1PL2 Copyright (c) Steve Scherf et al.
# Submitted via: audiograbber 1.81.02
#
DISCID=ba0a740d
DTITLE=Tracie Lynn - leave a trail
DYEAR=2005
DGENRE=Country
TTITLE0=Coming Around the Bend
TTITLE1=Best Kept Secret
TTITLE2=Happy Hour
TTITLE3=Lost in the Shuffle
TTITLE4=Bad case of the Blues
TTITLE5=Living out load
TTITLE6=Love waits
TTITLE7=Good Bye for Now
TTITLE8=Love has no Bounds
TTITLE9=Night I can't Remember
TTITLE10=Wish I did not want you back
TTITLE11=Mamas
TTITLE12=Leave a trail
EXTD=
EXTT0=
EXTT1=
EXTT2=
EXTT3=
EXTT4=
EXTT5=
EXTT6=
EXTT7=
EXTT8=
EXTT9=
EXTT10=
EXTT11=
EXTT12=
PLAYORDER=
